<svg width="50" height="50" viewBox="0 0 50 50" fill="none" xmlns="http://www.w3.org/2000/svg">
<path d="M25 5C14 5 5 14 5 25C5 36 14 45 25 45C36 45 45 36 45 25C45 14 36 5 25 5ZM32.885 35C32.5183 35 32.335 34.8167 31.9683 34.6333C29.2183 32.9817 25.735 32.0667 22.0683 32.0667C20.0517 32.0667 17.8517 32.4333 16.0183 32.8C15.6517 32.8 15.285 32.9833 15.1017 32.9833C14.3683 32.9833 13.8183 32.4333 13.8183 31.7C13.8183 30.9667 14.185 30.4167 14.9183 30.4167C17.3017 29.8667 19.6867 29.5 22.2533 29.5C26.47 29.5 30.32 30.6 33.62 32.4333C33.9867 32.8 34.3533 32.9833 34.3533 33.7167C33.9833 34.6333 33.4333 35 32.885 35ZM34.9 29.8683C34.5333 29.8683 34.1667 29.685 33.8 29.5017C30.6833 27.485 26.2817 26.385 21.5167 26.385C19.1333 26.385 16.9317 26.7517 15.2833 27.1183C14.9167 27.3017 14.7333 27.3017 14.3667 27.3017C13.45 27.3017 12.8983 26.5683 12.8983 25.8333C12.8983 24.9167 13.265 24.55 14.1817 24.1817C16.3817 23.6317 18.5833 23.0817 21.7 23.0817C26.8333 23.0817 31.6 24.365 35.635 26.7483C36.185 27.115 36.5517 27.665 36.5517 28.2167C36.3667 29.1333 35.8183 29.8683 34.9 29.8683ZM37.2833 24C36.9167 24 36.7333 23.8167 36.1833 23.6333C32.5167 21.6167 27.2 20.3333 22.0667 20.3333C19.5 20.3333 16.75 20.7 14.365 21.25C13.9983 21.25 13.815 21.4333 13.265 21.4333C12.165 21.6183 11.4317 20.7 11.4317 19.6017C11.4317 18.5033 11.9817 17.95 12.715 17.7683C15.65 17.0333 18.7667 16.6667 22.0667 16.6667C27.75 16.6667 33.6167 17.95 38.2017 20.3333C38.7517 20.7 39.3017 21.25 39.3017 22.1667C39.1183 23.2667 38.3833 24 37.2833 24Z" fill="white"/>
</svg>
